<?xml version="1.0" encoding="UTF-8"?>
<svg width="374px" height="293px" viewBox="0 0 374 293" version="1.1" xmlns="http://www.w3.org/2000/svg" xmlns:xlink="http://www.w3.org/1999/xlink">
    <title>Group 17</title>
    <defs>
        <linearGradient x1="50%" y1="0%" x2="50%" y2="100%" id="linearGradient-1">
            <stop stop-color="#F8F9FC" offset="0%"></stop>
            <stop stop-color="#EDEFF8" offset="100%"></stop>
        </linearGradient>
    </defs>
    <g id="eit-RACE-2020-home" stroke="none" stroke-width="1" fill="none" fill-rule="evenodd">
        <g id="07_regopen_home" transform="translate(-879.000000, -4209.000000)">
            <g id="Group-17" transform="translate(879.000000, 4209.320239)">
                <g id="Group-12">
                    <polygon id="Triangle" fill="url(#linearGradient-1)" transform="translate(187.000000, 146.000000) rotate(-180.000000) translate(-187.000000, -146.000000) " points="187 0 374 292 0 292"></polygon>
                    <g id="ON-YOUR-MARK" transform="translate(84.534219, 45.256000)" fill="#031241" fill-rule="nonzero">
                        <path d="M7.616,18.688 C5.312,18.688 4.544,17.76 4.544,15.424 C4.544,12.224 5.728,7.04 8,4.8 C8.704,4.096 9.632,3.84 10.592,3.84 C12.864,3.84 13.632,4.768 13.632,7.104 C13.632,10.752 12.416,15.488 10.304,17.6 C9.568,18.336 8.608,18.688 7.616,18.688 Z M6.848,22.528 C9.12,22.528 11.36,21.888 12.928,20.672 C16.576,17.824 18.176,12.16 18.176,6.656 C18.176,1.952 15.424,0 11.104,0 C8.704,0 6.624,0.736 4.992,2.144 C1.6,5.088 0,10.56 0,15.872 C0,20.48 2.624,22.528 6.848,22.528 Z" id="Shape"></path>
                        <polygon id="Path" points="18.528 22.144 22.688 22.144 26.752 4.768 27.136 4.768 28.544 22.144 35.2 22.144 40.224 0.384 35.968 0.384 32.096 17.44 31.712 17.44 30.56 0.384 23.552 0.384"></polygon>
                        <polygon id="Path" points="65.472 0.384 60.8 0.384 55.392 8.864 53.856 0.384 49.376 0.384 52.416 12.736 50.24 22.144 54.336 22.144 56.512 12.928"></polygon>
                        <path d="M70.464,18.688 C68.16,18.688 67.392,17.76 67.392,15.424 C67.392,12.224 68.576,7.04 70.848,4.8 C71.552,4.096 72.48,3.84 73.44,3.84 C75.712,3.84 76.48,4.768 76.48,7.104 C76.48,10.752 75.264,15.488 73.152,17.6 C72.416,18.336 71.456,18.688 70.464,18.688 Z M69.696,22.528 C71.968,22.528 74.208,21.888 75.776,20.672 C79.424,17.824 81.024,12.16 81.024,6.656 C81.024,1.952 78.272,0 73.952,0 C71.552,0 69.472,0.736 67.84,2.144 C64.448,5.088 62.848,10.56 62.848,15.872 C62.848,20.48 65.472,22.528 69.696,22.528 Z" id="Shape"></path>
                        <path d="M90.592,0.384 L86.176,0.384 L83.008,14.048 C82.784,15.072 82.592,16.448 82.592,17.6 C82.592,20.992 85.248,22.528 89.216,22.528 C94.336,22.528 96.896,20.192 98.144,14.752 L101.472,0.384 L97.056,0.384 L93.728,14.752 C93.12,17.44 92.384,18.688 89.6,18.688 C88,18.688 86.976,18.368 86.976,16.864 C86.976,16.096 87.104,15.424 87.264,14.752 L90.592,0.384 Z" id="Path"></path>
                        <path d="M110.912,22.144 L115.328,22.144 L113.568,14.624 C116.224,13.568 118.432,10.752 118.432,6.592 C118.432,2.144 116.224,0.384 111.712,0.384 L105.44,0.384 L100.416,22.144 L104.832,22.144 L106.432,15.232 L109.472,15.232 L110.912,22.144 Z M113.888,6.784 C113.888,9.184 112.544,11.456 110.144,11.456 L107.296,11.456 L108.992,4.16 L111.456,4.16 C113.28,4.16 113.888,4.96 113.888,6.784 Z" id="Shape"></path>
                        <polygon id="Path" points="125.344 22.144 129.76 22.144 133.856 4.224 134.016 4.224 134.048 21.184 138.208 21.184 145.984 4.224 146.176 4.224 142.016 22.144 146.432 22.144 151.456 0.384 144.48 0.384 137.248 16.224 137.216 0.384 130.368 0.384"></polygon>
                        <path d="M148.928,22.144 L153.344,22.144 L155.04,18.368 L161.376,18.368 L161.248,22.144 L165.664,22.144 L166.336,0.384 L158.72,0.384 L148.928,22.144 Z M161.312,4.224 L161.984,4.224 L161.536,14.528 L156.704,14.528 L161.312,4.224 Z" id="Shape"></path>
                        <path d="M178.72,22.144 L183.136,22.144 L181.376,14.624 C184.032,13.568 186.24,10.752 186.24,6.592 C186.24,2.144 184.032,0.384 179.52,0.384 L173.248,0.384 L168.224,22.144 L172.64,22.144 L174.24,15.232 L177.28,15.232 L178.72,22.144 Z M181.696,6.784 C181.696,9.184 180.352,11.456 177.952,11.456 L175.104,11.456 L176.8,4.16 L179.264,4.16 C181.088,4.16 181.696,4.96 181.696,6.784 Z" id="Shape"></path>
                        <polygon id="Path" points="196.32 22.144 200.96 22.144 198.944 11.296 205.888 0.384 201.056 0.384 195.424 9.536 193.376 9.792 195.552 0.384 191.136 0.384 186.112 22.144 190.528 22.144 192.48 13.632 194.912 13.408"></polygon>
                    </g>
                    <g id="GET-SET" transform="translate(120.889219, 86.136000)" fill="#031241" fill-rule="nonzero">
                        <path d="M11.592,17.976 L14.28,17.976 L12.81,24.318 C12.81,24.318 11.592,24.528 10.164,24.528 C7.644,24.528 5.964,23.436 5.964,20.622 C5.964,14.154 8.4,5.04 14.784,5.04 C18.48,5.04 22.638,5.88 22.638,5.88 L23.982,1.68 C23.982,1.68 19.866,0 15.246,0 C4.746,0 0,9.912 0,20.58 C0,26.586 3.276,29.568 9.45,29.568 C14.742,29.568 17.598,28.476 17.598,28.476 L21.168,13.188 L12.726,13.188 L11.592,17.976 Z" id="Path"></path>
                        <polygon id="Path" points="22.302 29.064 39.102 29.064 40.236 24.024 29.274 24.024 30.828 17.304 39.438 17.304 40.614 12.264 31.962 12.264 33.516 5.544 44.436 5.544 45.612 0.504 28.854 0.504"></polygon>
                        <polygon id="Path" points="46.242 5.544 52.5 5.544 47.082 29.064 52.878 29.064 58.296 5.544 64.638 5.544 65.814 0.504 47.418 0.504"></polygon>
                        <path d="M93.45,1.596 C93.45,1.596 89.25,0 84.672,0 C78.666,0 74.97,4.074 74.97,9.366 C74.97,13.146 76.566,14.868 80.346,16.59 C84.042,18.27 84.588,18.774 84.588,20.37 C84.588,23.52 82.74,24.528 79.59,24.528 C76.65,24.528 71.904,23.688 71.904,23.688 L70.938,27.846 C70.938,27.846 75.222,29.568 79.674,29.568 C86.142,29.568 90.468,26.166 90.468,19.698 C90.468,15.96 89.46,14.406 84.756,12.306 C81.312,10.752 80.85,10.248 80.85,8.694 C80.85,6.468 82.32,4.956 84.84,4.956 C87.78,4.956 92.4,5.712 92.4,5.712 L93.45,1.596 Z" id="Path"></path>
                        <polygon id="Path" points="92.358 29.064 109.158 29.064 110.292 24.024 99.33 24.024 100.884 17.304 109.494 17.304 110.67 12.264 102.018 12.264 103.572 5.544 114.492 5.544 115.668 0.504 98.91 0.504"></polygon>
                        <polygon id="Path" points="116.298 5.544 122.556 5.544 117.138 29.064 122.934 29.064 128.352 5.544 134.694 5.544 135.87 0.504 117.474 0.504"></polygon>
                    </g>
                    <g id="GO!" transform="translate(148.172219, 133.600000)" fill="#031241" fill-rule="nonzero">
                        <path d="M17.112,27.032 L21.08,27.032 L18.91,36.394 C18.91,36.394 17.112,36.704 15.004,36.704 C11.284,36.704 8.804,35.092 8.804,30.938 C8.804,21.39 12.4,7.936 21.824,7.936 C27.28,7.936 33.418,9.176 33.418,9.176 L35.402,2.976 C35.402,2.976 29.326,0.496 22.506,0.496 C7.006,0.496 0,15.128 0,30.876 C0,39.742 4.836,44.144 13.95,44.144 C21.762,44.144 25.978,42.532 25.978,42.532 L31.248,19.964 L18.786,19.964 L17.112,27.032 Z" id="Path"></path>
                        <path d="M49.91,36.704 C45.446,36.704 43.958,34.906 43.958,30.38 C43.958,24.18 46.252,14.136 50.654,9.796 C52.018,8.432 53.816,7.936 55.676,7.936 C60.078,7.936 61.566,9.734 61.566,14.26 C61.566,21.328 59.21,30.504 55.118,34.596 C53.692,36.022 51.832,36.704 49.91,36.704 Z M48.422,44.144 C52.824,44.144 57.164,42.904 60.202,40.548 C67.27,35.03 70.37,24.056 70.37,13.392 C70.37,4.278 65.038,0.496 56.668,0.496 C52.018,0.496 47.988,1.922 44.826,4.65 C38.254,10.354 35.154,20.956 35.154,31.248 C35.154,40.176 40.238,44.144 48.422,44.144 Z" id="Shape"></path>
                        <path d="M71.796,27.404 L79.608,27.404 L86.552,0 L77.686,0 L71.796,27.404 Z M67.89,43.4 L76.322,43.4 L78.492,33.914 L70.06,33.914 L67.89,43.4 Z" id="Shape"></path>
                    </g>
                    <g id="Group-4" transform="translate(30.574219, 151.618321)" fill="#CD154F">
                        <polygon id="Fill-1" transform="translate(280.081078, 41.500000) rotate(10.000000) translate(-280.081078, -41.500000) " points="281.201451 4 260.563867 45.2832864 273.074691 45.2832864 257.162156 79 298.437324 37.7167136 280.827993 37.7167136 303 4"></polygon>
                        <polygon id="Fill-1" transform="translate(29.918922, 41.500000) scale(-1, 1) rotate(10.000000) translate(-29.918922, -41.500000) " points="31.0392942 4 10.4017103 45.2832864 22.9125352 45.2832864 7 79 48.2751678 37.7167136 30.6658368 37.7167136 52.8378437 4"></polygon>
                    </g>
                    <g id="Group-9" transform="translate(68.308594, 46.000000)" stroke="#031241" stroke-linecap="square">
                        <line x1="14.0962068" y1="0.5" x2="2.09997015" y2="0.5" id="Line-3"></line>
                        <line x1="13.0708409" y1="4.88167939" x2="1.07460416" y2="4.88167939" id="Line-3"></line>
                        <line x1="12.2183892" y1="9.26335878" x2="0.222152531" y2="9.26335878" id="Line-3"></line>
                    </g>
                    <g id="Group-9" transform="translate(105.198242, 86.200000)" stroke="#031241" stroke-linecap="square">
                        <line x1="14.0962068" y1="0.5" x2="2.09997015" y2="0.5" id="Line-3"></line>
                        <line x1="13.0708409" y1="4.88167939" x2="1.07460416" y2="4.88167939" id="Line-3"></line>
                        <line x1="12.2183892" y1="9.26335878" x2="0.222152531" y2="9.26335878" id="Line-3"></line>
                    </g>
                </g>
                <g id="Group-9" transform="translate(133.574219, 136.000000)" stroke="#031241" stroke-linecap="square">
                    <line x1="14.0962068" y1="0.5" x2="2.09997015" y2="0.5" id="Line-3"></line>
                    <line x1="13.0708409" y1="4.88167939" x2="1.07460416" y2="4.88167939" id="Line-3"></line>
                    <line x1="12.2183892" y1="9.26335878" x2="0.222152531" y2="9.26335878" id="Line-3"></line>
                </g>
            </g>
        </g>
    </g>
</svg>