<?xml version="1.0" encoding="UTF-8"?>
<svg width="107px" height="106px" viewBox="0 0 107 106" version="1.1" xmlns="http://www.w3.org/2000/svg" xmlns:xlink="http://www.w3.org/1999/xlink">
    <title>Group 8</title>
    <defs>
        <linearGradient x1="50.6805546%" y1="2.31160713%" x2="50.0134134%" y2="98.074615%" id="linearGradient-1">
            <stop stop-color="#FAFCFF" offset="0%"></stop>
            <stop stop-color="#E9ECF5" offset="100%"></stop>
        </linearGradient>
    </defs>
    <g id="eit-RACE-2020-home" stroke="none" stroke-width="1" fill="none" fill-rule="evenodd">
        <g id="11_regopen_join" transform="translate(-1202.000000, -1180.000000)">
            <g id="Group-8" transform="translate(1202.500000, 1180.000000)">
                <circle id="Oval" fill="url(#linearGradient-1)" cx="53" cy="53" r="53"></circle>
                <g id="puzzle" transform="translate(32.000000, 32.000000)" fill-rule="nonzero">
                    <path d="M17.9875664,5.79960938 C19.1556094,5.86047656 20.2092187,6.34848047 21,7.10882812 L21,0 L2.89652344,0 C1.29691406,0 0,1.29691406 0,2.89652344 L0,21 L7.10817188,21 C6.3485625,21.7907812 5.85973828,22.8443906 5.79895313,24.0124336 C5.66351953,26.6272617 7.81421484,28.9286484 10.4327344,28.9648242 C13.0635586,29.0017383 15.2069531,26.8807383 15.2069531,24.2586914 C15.2069531,22.9928672 14.7044297,21.8458242 13.8919102,21.000082 L21,21.000082 L21,13.8919102 C20.1541758,14.7044297 19.0071328,15.2069531 17.7413906,15.2069531 C15.1192617,15.2069531 12.9982617,13.0634766 13.0352578,10.4334727 C13.0714336,7.81487109 15.3727383,5.66417578 17.9875664,5.79960938 Z" id="Path" fill="#7E89AF"></path>
                    <path d="M5.79960938,24.0124336 C5.86047656,22.8443906 6.34848047,21.7907812 7.10882812,21 L0,21 L0,39.1034766 C0,40.7030859 1.29691406,42 2.89652344,42 L21,42 L21,34.8918281 C21.7907812,35.6514375 22.8443906,36.1402617 24.0124336,36.2010469 C26.6272617,36.3364805 28.9286484,34.1857852 28.9648242,31.5672656 C29.0017383,28.9364414 26.8807383,26.7930469 24.2586914,26.7930469 C22.9928672,26.7930469 21.8458242,27.2955703 21.000082,28.1080898 L21.000082,21 L13.8919102,21 C14.7044297,21.8458242 15.2069531,22.9928672 15.2069531,24.2586094 C15.2069531,26.8807383 13.0634766,29.0017383 10.4334727,28.9647422 C7.81487109,28.9285664 5.66417578,26.6272617 5.79960938,24.0124336 Z" id="Path" fill="#DDE2EF"></path>
                    <path d="M24.0124336,36.2003906 C22.8443906,36.1395234 21.7907812,35.6515195 21,34.8911719 L21,42 L39.1034766,42 C40.7030859,42 42,40.7030859 42,39.1034766 L42,21 L34.8918281,21 C35.6514375,20.2092188 36.1402617,19.1556094 36.2010469,17.9875664 C36.3364805,15.3727383 34.1857852,13.0714336 31.5672656,13.0351758 C28.9364414,12.9982617 26.7930469,15.1192617 26.7930469,17.7413086 C26.7930469,19.0071328 27.2955703,20.1541758 28.1080898,20.999918 L21,20.999918 L21,28.1080898 C21.8458242,27.2955703 22.9928672,26.7930469 24.2586094,26.7930469 C26.8807383,26.7930469 29.0017383,28.9365234 28.9647422,31.5665273 C28.9285664,34.1851289 26.6272617,36.3358242 24.0124336,36.2003906 Z" id="Path" fill="#CED4E7"></path>
                    <path d="M36.2003906,17.9875664 C36.1395234,19.1556094 35.6515195,20.2092187 34.8911719,21 L42,21 L42,2.89652344 C42,1.29691406 40.7030859,0 39.1034766,0 L21,0 L21,7.10817188 C20.2092188,6.3485625 19.1556094,5.85973828 17.9875664,5.79895313 C15.3727383,5.66351953 13.0714336,7.81421484 13.0351758,10.4327344 C12.9982617,13.0635586 15.1192617,15.2069531 17.7413086,15.2069531 C19.0071328,15.2069531 20.1541758,14.7044297 20.999918,13.8919102 L20.999918,21 L28.1080898,21 C27.2955703,20.1541758 26.7930469,19.0071328 26.7930469,17.7413906 C26.7930469,15.1192617 28.9365234,12.9982617 31.5665273,13.0352578 C34.1851289,13.0714336 36.3358242,15.3727383 36.2003906,17.9875664 Z" id="Path" fill="#B6BFDB"></path>
                </g>
            </g>
        </g>
    </g>
</svg>