<?xml version="1.0" encoding="UTF-8"?>
<svg width="107px" height="106px" viewBox="0 0 107 106" version="1.1" xmlns="http://www.w3.org/2000/svg" xmlns:xlink="http://www.w3.org/1999/xlink">
    <title>Group 26</title>
    <defs>
        <linearGradient x1="50.6805546%" y1="2.31160713%" x2="50.0134134%" y2="98.074615%" id="linearGradient-1">
            <stop stop-color="#FAFCFF" offset="0%"></stop>
            <stop stop-color="#E9ECF5" offset="100%"></stop>
        </linearGradient>
    </defs>
    <g id="eit-RACE-2020-home" stroke="none" stroke-width="1" fill="none" fill-rule="evenodd">
        <g id="08_regopen_race2023" transform="translate(-1320.000000, -3881.000000)">
            <g id="Group-26" transform="translate(1320.500000, 3881.000000)">
                <circle id="Oval" fill="url(#linearGradient-1)" cx="53" cy="53" r="53"></circle>
                <g id="Group-16" transform="translate(19.500000, 20.999934)">
                    <path d="M34.6663,6.09492316 L30.8697286,6.5906476e-05 L25.5223,6.5906476e-05 C23.0728714,-0.000362557796 20.8028714,1.2847803 19.5428714,3.38520887 L16.0000143,9.14292316 L28.5714429,17.1429232 L34.6663,6.09492316 Z" id="Fill-1" fill="#495886"></path>
                    <path d="M54.6845714,10.9863232 L50.2857143,3.42860887 C49.1662857,1.31246601 46.9654286,-0.00810541494 44.5714286,2.27373675e-13 L30.8697143,2.27373675e-13 L41.1428571,19.4286089 L35.4285714,22.8571803 L52.4365714,24.7920374 L60.5714286,8.00003744 L54.6845714,10.9863232 Z" id="Fill-4" fill="#CED4E7"></path>
                    <path d="M61.7142857,24.000066 L48,32.000066 L53.7142857,42.2857803 L62.8571429,42.2857803 L65.2457143,38.4286374 C66.5721429,36.2812089 66.6341429,33.5844946 65.408,31.3783517 L61.7142857,24.000066 Z" id="Fill-7" fill="#69759C"></path>
                    <path d="M40,42.2857803 L40,36.5714946 L28.5714286,49.1429232 L40,64.000066 L40,59.4286374 L49.1428571,59.4286374 C51.5504286,59.4873517 53.776,58.152066 54.8571429,56.000066 L62.8571429,42.2857803 L40,42.2857803 Z" id="Fill-10" fill="#CED4E7"></path>
                    <path d="M11.4285714,43.4286374 L8.64571429,49.8423517 L12.1234286,55.8663517 C13.4134286,58.0496374 15.75,59.4003517 18.2857143,59.4286374 L22.8571429,59.4286374 L22.8571429,43.4286374 L11.4285714,43.4286374 Z" id="Fill-12" fill="#3B4A77"></path>
                    <path d="M25.1428571,33.1429232 L18.2857143,18.2857803 L0,19.4286374 L6.536,23.4812089 L2.28571429,32.000066 C1.10342857,34.1329232 1.10342857,36.7243517 2.28571429,38.8572089 L8.64457143,49.8423517 L11.024,45.7143517 L19.5177143,30.9714946 L25.1428571,33.1429232 Z" id="Fill-14" fill="#CED4E7"></path>
                </g>
            </g>
        </g>
    </g>
</svg>