<?xml version="1.0" encoding="UTF-8"?>
<svg width="107px" height="106px" viewBox="0 0 107 106" version="1.1" xmlns="http://www.w3.org/2000/svg" xmlns:xlink="http://www.w3.org/1999/xlink">
    <title>Group 21</title>
    <defs>
        <linearGradient x1="50.6805546%" y1="2.31160713%" x2="50.0134134%" y2="98.074615%" id="linearGradient-1">
            <stop stop-color="#FAFCFF" offset="0%"></stop>
            <stop stop-color="#E9ECF5" offset="100%"></stop>
        </linearGradient>
    </defs>
    <g id="eit-RACE-2020-home" stroke="none" stroke-width="1" fill="none" fill-rule="evenodd">
        <g id="08_regopen_race2023" transform="translate(-472.000000, -3877.000000)">
            <g id="Group-21" transform="translate(472.500000, 3877.000000)">
                <circle id="Oval" fill="url(#linearGradient-1)" cx="53" cy="53" r="53"></circle>
                <path d="M73.2496375,43.499975 L60.5000125,43.499975 C59.8426375,43.499975 59.2311375,43.15385 58.8923875,42.589975 L52.5166375,31.977225 C52.1558875,31.378475 52.1596375,30.627725 52.5257625,30.03085 C54.4281375,26.933225 56.4876375,24.749975 60.5000125,24.749975 C63.4937625,24.749975 66.2842625,26.3411 67.7802625,28.90285 L74.8555125,40.658225 C75.6057625,41.8996 74.7121375,43.499975 73.2496375,43.499975" id="Fill-1" fill="#32406A"></path>
                <path d="M80.537475,50.999975 C79.487725,57.374975 77.0501,63.699975 73.449975,69.17485 C73.0751,69.69985 72.512475,69.999975 71.8751,69.999975 L34.124975,69.999975 C33.4876,69.999975 32.924975,69.69985 32.5501,69.17485 C28.949975,63.699975 26.51235,57.374975 25.462475,50.999975 L28.274975,48.412475 L76.675225,48.412475 L80.537475,50.999975 Z" id="Fill-3" fill="#CED4E7"></path>
                <path d="M75.625,66.249975 L30.375,66.249975 C27.262375,66.249975 24.75,68.76235 24.75,71.874975 L24.75,75.624975 C24.75,76.67485 25.574875,77.499975 26.625,77.499975 L79.375,77.499975 C80.425125,77.499975 81.25,76.67485 81.25,75.624975 L81.25,71.874975 C81.25,68.76235 78.737625,66.249975 75.625,66.249975" id="Fill-5" fill="#DDE2EF"></path>
                <path d="M80.537475,50.999975 C79.487725,57.374975 77.0501,63.699975 73.449975,69.17485 C73.0751,69.69985 72.512475,69.999975 71.8751,69.999975 L52.999975,69.999975 L52.999975,48.412475 L76.675225,48.412475 L80.537475,50.999975 Z" id="Fill-7" fill="#B6BFDB"></path>
                <path d="M81.25,71.874975 L81.25,75.624975 C81.25,76.67485 80.425125,77.499975 79.375,77.499975 L53,77.499975 L53,66.249975 L75.625,66.249975 C78.737625,66.249975 81.25,68.76235 81.25,71.874975" id="Fill-9" fill="#CED4E7"></path>
                <path d="M68.125,84.999975 C65.02325,84.999975 62.5,82.476725 62.5,79.374975 C62.5,76.273225 65.02325,73.749975 68.125,73.749975 C71.22675,73.749975 73.75,76.273225 73.75,79.374975 C73.75,82.476725 71.22675,84.999975 68.125,84.999975" id="Fill-11" fill="#3B4A77"></path>
                <path d="M68.125,81.249975 C67.0905,81.249975 66.25,80.409475 66.25,79.374975 C66.25,78.340475 67.0905,77.499975 68.125,77.499975 C69.1595,77.499975 70,78.340475 70,79.374975 C70,80.409475 69.1595,81.249975 68.125,81.249975" id="Fill-13" fill="#FFFFFF"></path>
                <path d="M37.875,84.999975 C34.77325,84.999975 32.25,82.476725 32.25,79.374975 C32.25,76.273225 34.77325,73.749975 37.875,73.749975 C40.97675,73.749975 43.5,76.273225 43.5,79.374975 C43.5,82.476725 40.97675,84.999975 37.875,84.999975" id="Fill-15" fill="#3B4A77"></path>
                <path d="M37.875,81.249975 C36.8405,81.249975 36,80.409475 36,79.374975 C36,78.340475 36.8405,77.499975 37.875,77.499975 C38.9095,77.499975 39.75,78.340475 39.75,79.374975 C39.75,80.409475 38.9095,81.249975 37.875,81.249975" id="Fill-17" fill="#FFFFFF"></path>
                <path d="M62.11255,40.65 L53.00005,25.537625 L52.77505,25.1625 C51.274925,22.574875 48.50005,21 45.50005,21 C42.50005,21 39.72505,22.574875 38.224925,25.124875 L28.88755,40.65 C28.13755,41.924875 29.037425,43.5 30.50005,43.5 L60.50005,43.5 C61.17505,43.5 61.812425,43.124875 62.15005,42.5625 C62.45005,41.962375 62.45005,41.249875 62.11255,40.65" id="Fill-19" fill="#69759C"></path>
                <path d="M81.25,41.962375 L81.25,43.0875 C81.25,45.44975 81.025,48.675 80.5375,51 L25.4625,51 C24.975,48.675 24.75,45.449875 24.75,43.0875 L24.75,41.962375 L81.25,41.962375 Z" id="Fill-21" fill="#DDE2EF"></path>
                <path d="M81.25,41.962375 L81.25,43.0875 C81.25,45.44975 81.025,48.675 80.5375,51 L53,51 L53,41.962375 L81.25,41.962375 Z" id="Fill-23" fill="#CED4E7"></path>
                <path d="M60.5,43.499975 L53,43.499975 L53,25.5376 L62.1125,40.649975 C62.450125,41.24985 62.450125,41.96235 62.15,42.562475 C61.812375,43.12485 61.175,43.499975 60.5,43.499975" id="Fill-25" fill="#495886"></path>
                <path d="M85,41.624975 C85,42.67485 84.175125,43.499975 83.125,43.499975 L22.875,43.499975 C21.824875,43.499975 21,42.67485 21,41.624975 C21,40.57485 21.824875,39.749975 22.875,39.749975 L83.125,39.749975 C84.175125,39.749975 85,40.57485 85,41.624975" id="Fill-27" fill="#CED4E7"></path>
                <path d="M85,41.624975 C85,42.67485 84.175125,43.499975 83.125,43.499975 L53,43.499975 L53,39.749975 L83.125,39.749975 C84.175125,39.749975 85,40.57485 85,41.624975" id="Fill-29" fill="#B6BFDB"></path>
            </g>
        </g>
    </g>
</svg>