<?xml version="1.0" encoding="UTF-8"?>
<svg width="107px" height="106px" viewBox="0 0 107 106" version="1.1" xmlns="http://www.w3.org/2000/svg" xmlns:xlink="http://www.w3.org/1999/xlink">
    <title>Group 24</title>
    <defs>
        <linearGradient x1="50.6805546%" y1="2.31160713%" x2="50.0134134%" y2="98.074615%" id="linearGradient-1">
            <stop stop-color="#FAFCFF" offset="0%"></stop>
            <stop stop-color="#E9ECF5" offset="100%"></stop>
        </linearGradient>
    </defs>
    <g id="eit-RACE-2020-home" stroke="none" stroke-width="1" fill="none" fill-rule="evenodd">
        <g id="08_regopen_race2023" transform="translate(-738.000000, -3862.000000)">
            <g id="Group-24" transform="translate(738.500000, 3862.000000)">
                <circle id="Oval" fill="url(#linearGradient-1)" cx="53" cy="53" r="53"></circle>
                <g id="Group-14" transform="translate(21.000000, 21.000000)">
                    <g id="Group-10">
                        <path d="M59.8785,32 C59.8785,31.38775 59.85825,30.76875 59.818125,30.151125 L63.257,27.004 L63.058125,25.97375 C62.80675,24.67075 62.47175,23.371375 62.062375,22.11175 C61.65325,20.852125 61.160375,19.603875 60.59775,18.401375 L60.153,17.451125 L55.522875,16.9265 C54.864625,15.885625 54.13625,14.88475 53.34725,13.9365 L54.27975,9.367375 L53.513625,8.650875 C52.54475,7.744875 51.509875,6.8905 50.43775,6.111625 C49.366,5.332875 48.2335,4.6125 47.072,3.97075 L46.153625,3.463375 L42.103375,5.758375 C40.956375,5.300375 39.77675,4.917375 38.579125,4.614125 L36.65075,0.3755 L35.6095,0.246375 C34.29225,0.082875 32.952875,0 31.6285,0 L24.1285,11.3125 L31.6285,22.625 C36.806125,22.625 41.0035,26.822375 41.0035,32 C41.0035,37.177625 36.806125,41.375 31.6285,41.375 L25.3785,52.6875 L31.6285,64 C32.953375,64 34.292625,63.917125 35.609625,63.7535 L36.65075,63.62425 L38.579125,59.385875 C39.77675,59.0825 40.9565,58.699625 42.103375,58.241625 L46.153625,60.536625 L47.072,60.02925 C48.2335,59.3875 49.366,58.66725 50.437625,57.8885 C51.509875,57.1095 52.54475,56.255125 53.513625,55.349125 L54.27975,54.632625 L53.34725,50.0635 C54.136375,49.11525 54.86475,48.114375 55.522875,47.0735 L60.153,46.548875 L60.59775,45.598625 C61.160375,44.39625 61.653125,43.148 62.06225,41.8885 C62.471625,40.628625 62.80675,39.329125 63.05825,38.02625 L63.257,36.996125 L59.818125,33.848875 C59.85825,33.231125 59.8785,32.612375 59.8785,32" id="Fill-1" fill="#A6B1D2"></path>
                        <path d="M22.2535,32 C22.2535,26.822375 26.450875,22.625 31.6285,22.625 L31.6285,0 C30.304125,0 28.96475,0.082875 27.6475,0.246375 L26.60625,0.3755 L24.677875,4.614125 C23.48025,4.9175 22.30075,5.300375 21.153625,5.758375 L17.103375,3.463375 L16.185,3.97075 C15.0235,4.6125 13.891,5.33275 12.819375,6.1115 C11.747125,6.8905 10.71225,7.744875 9.743375,8.650875 L8.97725,9.367375 L9.90975,13.9365 C9.120375,14.885 8.392125,15.885625 7.734125,16.926625 L3.104,17.451125 L2.65925,18.401375 C2.09675,19.603375 1.604,20.85175 1.194625,22.1115 C0.785125,23.37175 0.450125,24.67125 0.19875,25.974 L0,27.004 L3.438875,30.151125 C3.39875,30.76875 3.3785,31.38775 3.3785,32 C3.3785,32.612375 3.39875,33.231125 3.438875,33.848875 L0,36.996 L0.198875,38.026 C0.45025,39.328875 0.785125,40.62825 1.19475,41.888375 C1.604,43.14825 2.096875,44.3965 2.659375,45.598625 L3.104125,46.548875 L7.73425,47.073375 C8.392375,48.114375 9.1205,49.115 9.909875,50.0635 L8.977375,54.632625 L9.7435,55.349125 C10.712375,56.255125 11.74725,57.1095 12.819375,57.888375 C13.891125,58.667125 15.023625,59.3875 16.185125,60.02925 L17.1035,60.536625 L21.15375,58.241625 C22.301,58.699625 23.480375,59.082625 24.678,59.385875 L26.606375,63.62425 L27.6475,63.7535 C28.964375,63.917125 30.303625,64 31.6285,64 L31.6285,41.375 C26.450875,41.375 22.2535,37.177625 22.2535,32" id="Fill-4" fill="#B6BFDB"></path>
                        <path d="M31.6285,11.25 L26.6285,18.8125 L31.6285,26.375 C34.735125,26.375 37.2535,28.893375 37.2535,32 C37.2535,35.106625 34.735125,37.625 31.6285,37.625 L26.6285,45.1875 L31.6285,52.75 C43.088375,52.75 52.3785,43.459875 52.3785,32 C52.3785,20.540125 43.088375,11.25 31.6285,11.25" id="Fill-6" fill="#CED4E7"></path>
                        <path d="M26.0035,32 C26.0035,28.893375 28.521875,26.375 31.6285,26.375 L31.6285,11.25 C20.168625,11.25 10.8785,20.540125 10.8785,32 C10.8785,43.459875 20.168625,52.75 31.6285,52.75 L31.6285,37.625 C28.521875,37.625 26.0035,35.106625 26.0035,32" id="Fill-8" fill="#DDE2EF"></path>
                    </g>
                    <circle id="Oval" stroke="#3B4A77" stroke-width="4" fill="#FBFCFE" cx="32" cy="32" r="4.5"></circle>
                </g>
            </g>
        </g>
    </g>
</svg>