<?xml version="1.0" encoding="UTF-8"?>
<svg width="107px" height="106px" viewBox="0 0 107 106" version="1.1" xmlns="http://www.w3.org/2000/svg" xmlns:xlink="http://www.w3.org/1999/xlink">
    <title>Group 25</title>
    <defs>
        <linearGradient x1="50.6805546%" y1="2.31160713%" x2="50.0134134%" y2="98.074615%" id="linearGradient-1">
            <stop stop-color="#FAFCFF" offset="0%"></stop>
            <stop stop-color="#E9ECF5" offset="100%"></stop>
        </linearGradient>
    </defs>
    <g id="eit-RACE-2020-home" stroke="none" stroke-width="1" fill="none" fill-rule="evenodd">
        <g id="08_regopen_race2023" transform="translate(-1036.000000, -3877.000000)">
            <g id="Group-25" transform="translate(1036.500000, 3877.000000)">
                <circle id="Oval" fill="url(#linearGradient-1)" cx="53" cy="53" r="53"></circle>
                <path d="M49.0819735,40.1493623 C48.7647126,39.6196169 48.1750328,39.3154937 47.5592947,39.3622902 L34.3244535,40.3846479 C32.9845091,40.48823 31.7909261,41.1905037 31.0495648,42.3116661 L25.4954352,50.7123495 C24.9333339,51.5626132 24.8438668,52.6265557 25.2562409,53.5585776 C25.6683978,54.490491 26.5159471,55.1399964 27.5228869,55.2960211 L38.2546022,56.9582209 C38.3380976,56.9711415 38.4213759,56.9775475 38.5042199,56.9775475 C39.0539434,56.9775475 39.5740255,56.6986141 39.8760858,56.22598 L49.0570009,41.8632446 C49.3895712,41.3428368 49.3991259,40.6792163 49.0819735,40.1493623" id="Fill-1" fill="#B6BFDB"></path>
                <path d="M65.4416831,56.5092891 C64.9118291,56.1919195 64.2482087,56.2016914 63.7279094,56.5341531 L49.3652826,65.7150682 C48.8214222,66.0627307 48.534237,66.6987726 48.6328245,67.3366604 L50.2950244,78.0682672 C50.451049,79.0754241 51.1005545,79.9227562 52.0325764,80.3350217 C52.420195,80.5065728 52.8306147,80.591154 53.23908,80.591154 C53.8125818,80.591154 54.3822835,80.4241631 54.8786959,80.0959359 L63.2795964,74.5415892 C64.4006503,73.8004451 65.1031411,72.606862 65.2063975,71.2668091 L66.2287552,58.0319679 C66.2764203,57.4163383 65.9716457,56.8266586 65.4416831,56.5092891" id="Fill-3" fill="#32406A"></path>
                <path d="M45.9409924,69.7633809 C46.589195,70.4116921 47.5102506,70.7149466 48.4143683,70.5635908 C61.6727707,68.3466729 72.1643145,57.3693572 76.1584149,49.6470607 C80.5936621,41.0723289 80.7579386,32.0110652 80.526236,27.7613755 C80.4466494,26.3052541 79.2859651,25.1444612 77.8297351,25.0649831 C73.5800453,24.833172 64.5187817,24.997557 55.9440499,29.4326957 C48.2219705,33.4269047 37.2444377,43.9184484 35.0276284,57.1768508 C34.8764897,58.0809685 35.1796357,59.0020242 35.8277297,59.6502267 L45.9409924,69.7633809 Z" id="Fill-6" fill="#DDE2EF"></path>
                <path d="M79.6942784,25.8969299 L40.8844262,64.7067821 L45.940949,69.7634135 C46.5891516,70.4116161 47.5102072,70.714762 48.4143249,70.5636234 C61.6728359,68.3467055 72.1642711,57.3692812 76.15848,49.6470932 C80.5936187,41.0724701 80.7580037,32.0112064 80.5261926,27.7615166 C80.4864536,27.0334016 80.1762501,26.3791188 79.6942784,25.8969299" id="Fill-9" fill="#CED4E7"></path>
                <path d="M63.080912,50.6497334 C60.9952633,50.6497334 58.9104832,49.8561467 57.322767,48.2684305 C55.7846703,46.7304423 54.9375553,44.6854013 54.9375553,42.5102854 C54.9375553,40.3352781 55.7846703,38.290237 57.322767,36.7522489 C60.4976566,33.5772507 65.6637332,33.5771422 68.83884,36.7522489 C70.3769367,38.290237 71.2239431,40.3352781 71.2239431,42.5102854 C71.2239431,44.6854013 70.3769367,46.7304423 68.83884,48.2684305 C67.251558,49.855821 65.1658007,50.6495162 63.080912,50.6497334 L63.080912,50.6497334 Z" id="Path" fill="#69759C"></path>
                <path d="M35.0276067,57.1768617 C34.876468,58.0809794 35.179614,59.002035 35.8278165,59.6502376 L45.9409707,69.7633918 C46.5891733,70.4117029 47.5102289,70.7148489 48.4143466,70.5636016 C51.2993366,70.0813042 54.0530574,69.1837011 56.6375072,67.9956555 L37.5956614,48.9538097 C36.4073986,51.5381509 35.5100127,54.2920889 35.0276067,57.1768617" id="Fill-14" fill="#69759C"></path>
                <path d="M26.6615918,70.8122422 C27.0783089,70.8122422 27.4952432,70.6531774 27.8131557,70.3351564 L33.1304796,65.0179411 C33.7665215,64.3818991 33.7665215,63.3506381 33.1304796,62.7147047 C32.4945462,62.0785542 31.4633938,62.0785542 30.8272432,62.7147047 L25.5100279,68.0320286 C24.8739859,68.6678535 24.8739859,69.6991144 25.5100279,70.3351564 C25.8280489,70.6532859 26.2447661,70.8122422 26.6615918,70.8122422" id="Fill-16" fill="#A6B1D2"></path>
                <path d="M38.0034536,67.587809 C37.3675202,66.9518756 36.3362592,66.9518756 35.7002172,67.587809 L25.4774006,77.8106256 C24.8413587,78.446559 24.8413587,79.47782 25.4774006,80.1137534 C25.7954216,80.4318829 26.2122474,80.5908391 26.6290731,80.5908391 C27.0458988,80.5908391 27.462616,80.4317744 27.780637,80.1136448 L38.0034536,69.8909368 C38.6394955,69.2548948 38.6394955,68.2236339 38.0034536,67.587809" id="Fill-18" fill="#A6B1D2"></path>
                <path d="M42.8764058,72.4607179 C42.2404724,71.8248931 41.2093201,71.8248931 40.5731695,72.4607179 L35.2560628,77.7779332 C34.6200208,78.4138666 34.6200208,79.4451276 35.2560628,80.0811695 C35.5740838,80.3991905 35.9908009,80.5582553 36.4075181,80.5582553 C36.8243438,80.5582553 37.2412781,80.3991905 37.5590819,80.0811695 L42.8764058,74.7638456 C43.5124478,74.1279122 43.5124478,73.0966513 42.8764058,72.4607179" id="Fill-20" fill="#A6B1D2"></path>
                <path d="M25.4773789,80.1137859 C25.7953999,80.4319155 26.2122256,80.5908717 26.6290514,80.5908717 C27.0458771,80.5908717 27.4627028,80.4318069 27.7806152,80.1136774 L38.0034318,69.8909693 C38.6394738,69.2549274 38.6394738,68.2236664 38.0034318,67.587733 L25.4773789,80.1137859 Z" id="Fill-22" fill="#A6B1D2"></path>
                <path d="M40.8843936,64.7068255 L45.941025,69.7633484 C46.5892276,70.4116595 47.5101746,70.7148055 48.4144009,70.5635582 C51.2992823,70.0812608 54.0530031,69.1836577 56.6375615,67.995612 L47.1165843,58.4747434 L40.8843936,64.7068255 Z" id="Fill-24" fill="#495886"></path>
                <path d="M57.3227235,48.2684305 C58.9104398,49.8561467 60.9952199,50.6499505 63.0808686,50.6497334 C65.1657573,50.6495162 67.2515146,49.8557124 68.8387965,48.2684305 C70.3768932,46.7303338 71.2238996,44.6854013 71.2238996,42.5102854 C71.2238996,40.3352781 70.3768932,38.290237 68.8387965,36.7522489 L57.3227235,48.2684305 Z" id="Fill-26" fill="#495886"></path>
                <path d="M63.0807818,37.626812 C61.8296531,37.626812 60.5784159,38.1030292 59.6259816,39.0555721 C58.7031887,39.978365 58.1948328,41.205281 58.1948328,42.5103723 C58.1948328,43.8154635 58.7031887,45.042271 59.6259816,45.9650639 C61.5309588,47.8700411 64.6307133,47.8701496 66.5356905,45.9650639 C67.4584834,45.0421624 67.9667307,43.8153549 67.9667307,42.5102637 C67.9667307,41.2051724 67.4584834,39.9782564 66.5356905,39.0554635 C65.5832562,38.1030292 64.332019,37.626812 63.0807818,37.626812" id="Fill-28" fill="#FFFFFF"></path>
                <path d="M66.5356145,39.0555938 L59.6259056,45.9651942 C61.5308828,47.8701714 64.6307459,47.8702799 66.5356145,45.9651942 C67.4584074,45.0422927 67.9666547,43.8153766 67.9666547,42.5102854 C67.9666547,41.2053027 67.458516,39.9783867 66.5356145,39.0555938" id="Fill-30" fill="#FFFFFF"></path>
            </g>
        </g>
    </g>
</svg>